# xmcd
#
# Track frame offsets: 
#        150
#        12261
#        29736
#        41310
#        63699
#        79993
#        93790
#        108954
#        124068
#        138619
#        148341
#        168215
#        183102
#        195061
#        212972
#        227170
#        252858
#
# Disc length: 3699 seconds
#
# Revision: 0
# Processed by: cddbd v1.5PL3 Copyright (c) Steve Scherf et al.
# Submitted via: ExactAudioCopy v0.95a4
#
DISCID=e90e7111
DTITLE=ASPM - Hotel stisko blues
DYEAR=1989
DGENRE=
TTITLE0=Zase budu druhej
TTITLE1=Cinovy vojacek
TTITLE2=Domovnicky blues
TTITLE3=Kulecnik
TTITLE4=Prazdna ulice
TTITLE5=PVC
TTITLE6=Nezvalovsky blues
TTITLE7=Spadla mi pena
TTITLE8=Pojdte ozivit prizraky
TTITLE9=Hotel stisko blues
TTITLE10=Jak sem vyrost
TTITLE11=Blues o slecne Ruth
TTITLE12=Cestou z prace
TTITLE13=Svet na ruby
TTITLE14=Detske saty
TTITLE15=Verim v nas
TTITLE16=Skladnik
EXTD=
EXTT0=
EXTT1=
EXTT2=
EXTT3=
EXTT4=
EXTT5=
EXTT6=
EXTT7=
EXTT8=
EXTT9=
EXTT10=
EXTT11=
EXTT12=
EXTT13=
EXTT14=
EXTT15=
EXTT16=
PLAYORDER=
